<svg width="1030" height="1030" viewBox="0 0 1030 1030" fill="none" xmlns="http://www.w3.org/2000/svg">
<g clip-path="url(#clip0_116_9)">
<rect width="1030" height="1030" fill="white"/>
<rect width="1030" height="1030" fill="#F9F6EE"/>
<path d="M273 249L273 510" stroke="#565143" stroke-width="25" stroke-linecap="round"/>
<path d="M370 161L370 603" stroke="#565143" stroke-width="25" stroke-linecap="round"/>
<path d="M467 411L467 714" stroke="#565143" stroke-width="25" stroke-linecap="round"/>
<path d="M544.297 406.907L615.703 603.093" stroke="#565143" stroke-width="25" stroke-linecap="round"/>
<path d="M679.406 406.907L608 603.093" stroke="#565143" stroke-width="25" stroke-linecap="round"/>
<path d="M679 406.907L750.406 603.093" stroke="#565143" stroke-width="25" stroke-linecap="round"/>
<path d="M367 424H276" stroke="#565143" stroke-width="25" stroke-linecap="round"/>
<path d="M750 603H370" stroke="#565143" stroke-width="25" stroke-linecap="round"/>
<circle cx="515.5" cy="423.5" r="299" stroke="#565143" stroke-width="25"/>
<circle cx="467" cy="347" r="35" fill="#565143"/>
<circle cx="467" cy="347" r="16" fill="white"/>
<mask id="path-13-outside-1_116_9" maskUnits="userSpaceOnUse" x="358" y="809" width="324" height="88" fill="black">
<rect fill="white" x="358" y="809" width="324" height="88"/>
<path d="M360.515 894V818.381H373.351V851.165H410.773V818.381H423.608V894H410.773V863.072H373.351V894H360.515ZM441.195 886.732C441.195 884.464 441.969 882.557 443.515 881.01C445.061 879.464 446.969 878.691 449.237 878.691C451.505 878.691 453.412 879.464 454.958 881.01C456.608 882.557 457.433 884.464 457.433 886.732C457.433 889 456.608 890.959 454.958 892.608C453.412 894.155 451.505 894.928 449.237 894.928C446.866 894.928 445.01 894.103 443.67 892.454C442.02 890.907 441.195 889 441.195 886.732ZM474.92 894V818.381H487.755V881.938H522.239V894H474.92ZM546.511 894H534.449V836.474H546.511V894ZM532.903 819.464C532.903 817.402 533.624 815.649 535.068 814.206C536.614 812.66 538.47 811.887 540.635 811.887C542.697 811.887 544.449 812.66 545.892 814.206C547.439 815.649 548.212 817.402 548.212 819.464C548.212 821.629 547.439 823.485 545.892 825.031C544.449 826.474 542.697 827.196 540.635 827.196C538.47 827.196 536.666 826.423 535.222 824.876C533.676 823.433 532.903 821.629 532.903 819.464ZM579.34 894L556.299 836.474H568.825L586.299 879.928L603.928 836.474H616.454L593.258 894H579.34ZM641.157 894L618.115 836.474H630.641L648.115 879.928L665.744 836.474H678.27L655.074 894H641.157Z"/>
</mask>
<path d="M360.515 894V818.381H373.351V851.165H410.773V818.381H423.608V894H410.773V863.072H373.351V894H360.515ZM441.195 886.732C441.195 884.464 441.969 882.557 443.515 881.01C445.061 879.464 446.969 878.691 449.237 878.691C451.505 878.691 453.412 879.464 454.958 881.01C456.608 882.557 457.433 884.464 457.433 886.732C457.433 889 456.608 890.959 454.958 892.608C453.412 894.155 451.505 894.928 449.237 894.928C446.866 894.928 445.01 894.103 443.67 892.454C442.02 890.907 441.195 889 441.195 886.732ZM474.92 894V818.381H487.755V881.938H522.239V894H474.92ZM546.511 894H534.449V836.474H546.511V894ZM532.903 819.464C532.903 817.402 533.624 815.649 535.068 814.206C536.614 812.66 538.47 811.887 540.635 811.887C542.697 811.887 544.449 812.66 545.892 814.206C547.439 815.649 548.212 817.402 548.212 819.464C548.212 821.629 547.439 823.485 545.892 825.031C544.449 826.474 542.697 827.196 540.635 827.196C538.47 827.196 536.666 826.423 535.222 824.876C533.676 823.433 532.903 821.629 532.903 819.464ZM579.34 894L556.299 836.474H568.825L586.299 879.928L603.928 836.474H616.454L593.258 894H579.34ZM641.157 894L618.115 836.474H630.641L648.115 879.928L665.744 836.474H678.27L655.074 894H641.157Z" fill="#565143"/>
<path d="M360.515 894H358.515V896H360.515V894ZM360.515 818.381V816.381H358.515V818.381H360.515ZM373.351 818.381H375.351V816.381H373.351V818.381ZM373.351 851.165H371.351V853.165H373.351V851.165ZM410.773 851.165V853.165H412.773V851.165H410.773ZM410.773 818.381V816.381H408.773V818.381H410.773ZM423.608 818.381H425.608V816.381H423.608V818.381ZM423.608 894V896H425.608V894H423.608ZM410.773 894H408.773V896H410.773V894ZM410.773 863.072H412.773V861.072H410.773V863.072ZM373.351 863.072V861.072H371.351V863.072H373.351ZM373.351 894V896H375.351V894H373.351ZM362.515 894V818.381H358.515V894H362.515ZM360.515 820.381H373.351V816.381H360.515V820.381ZM371.351 818.381V851.165H375.351V818.381H371.351ZM373.351 853.165H410.773V849.165H373.351V853.165ZM412.773 851.165V818.381H408.773V851.165H412.773ZM410.773 820.381H423.608V816.381H410.773V820.381ZM421.608 818.381V894H425.608V818.381H421.608ZM423.608 892H410.773V896H423.608V892ZM412.773 894V863.072H408.773V894H412.773ZM410.773 861.072H373.351V865.072H410.773V861.072ZM371.351 863.072V894H375.351V863.072H371.351ZM373.351 892H360.515V896H373.351V892ZM443.515 881.01L444.929 882.425V882.425L443.515 881.01ZM454.958 881.01L453.544 882.425L453.567 882.447L453.59 882.469L454.958 881.01ZM454.958 892.608L456.373 894.022L454.958 892.608ZM443.67 892.454L445.222 891.192L445.136 891.087L445.038 890.995L443.67 892.454ZM443.195 886.732C443.195 884.972 443.773 883.581 444.929 882.425L442.101 879.596C440.164 881.533 439.195 883.955 439.195 886.732H443.195ZM444.929 882.425C446.085 881.268 447.477 880.691 449.237 880.691V876.691C446.46 876.691 444.038 877.659 442.101 879.596L444.929 882.425ZM449.237 880.691C450.996 880.691 452.388 881.268 453.544 882.425L456.373 879.596C454.436 877.659 452.013 876.691 449.237 876.691V880.691ZM453.59 882.469C454.835 883.636 455.433 885.015 455.433 886.732H459.433C459.433 883.913 458.38 881.477 456.326 879.551L453.59 882.469ZM455.433 886.732C455.433 888.453 454.83 889.908 453.544 891.194L456.373 894.022C458.385 892.01 459.433 889.547 459.433 886.732H455.433ZM453.544 891.194C452.388 892.35 450.996 892.928 449.237 892.928V896.928C452.013 896.928 454.436 895.959 456.373 894.022L453.544 891.194ZM449.237 892.928C447.389 892.928 446.135 892.316 445.222 891.192L442.117 893.715C443.885 895.89 446.342 896.928 449.237 896.928V892.928ZM445.038 890.995C443.793 889.828 443.195 888.449 443.195 886.732H439.195C439.195 889.551 440.248 891.987 442.302 893.913L445.038 890.995ZM474.92 894H472.92V896H474.92V894ZM474.92 818.381V816.381H472.92V818.381H474.92ZM487.755 818.381H489.755V816.381H487.755V818.381ZM487.755 881.938H485.755V883.938H487.755V881.938ZM522.239 881.938H524.239V879.938H522.239V881.938ZM522.239 894V896H524.239V894H522.239ZM476.92 894V818.381H472.92V894H476.92ZM474.92 820.381H487.755V816.381H474.92V820.381ZM485.755 818.381V881.938H489.755V818.381H485.755ZM487.755 883.938H522.239V879.938H487.755V883.938ZM520.239 881.938V894H524.239V881.938H520.239ZM522.239 892H474.92V896H522.239V892ZM546.511 894V896H548.511V894H546.511ZM534.449 894H532.449V896H534.449V894ZM534.449 836.474V834.474H532.449V836.474H534.449ZM546.511 836.474H548.511V834.474H546.511V836.474ZM535.068 814.206L536.482 815.62L535.068 814.206ZM545.893 814.206L544.43 815.571L544.477 815.621L544.528 815.668L545.893 814.206ZM545.893 825.031L544.478 823.617L545.893 825.031ZM535.222 824.876L536.685 823.512L536.637 823.461L536.587 823.414L535.222 824.876ZM546.511 892H534.449V896H546.511V892ZM536.449 894V836.474H532.449V894H536.449ZM534.449 838.474H546.511V834.474H534.449V838.474ZM544.511 836.474V894H548.511V836.474H544.511ZM534.903 819.464C534.903 817.926 535.418 816.684 536.482 815.62L533.654 812.792C531.831 814.615 530.903 816.878 530.903 819.464H534.903ZM536.482 815.62C537.658 814.445 539.006 813.887 540.635 813.887V809.887C537.933 809.887 535.571 810.875 533.654 812.792L536.482 815.62ZM540.635 813.887C542.126 813.887 543.354 814.418 544.43 815.571L547.355 812.842C545.544 810.902 543.267 809.887 540.635 809.887V813.887ZM544.528 815.668C545.681 816.744 546.212 817.972 546.212 819.464H550.212C550.212 816.832 549.197 814.555 547.257 812.744L544.528 815.668ZM546.212 819.464C546.212 821.092 545.654 822.441 544.478 823.617L547.307 826.445C549.224 824.528 550.212 822.165 550.212 819.464H546.212ZM544.478 823.617C543.414 824.681 542.172 825.196 540.635 825.196V829.196C543.221 829.196 545.484 828.268 547.307 826.445L544.478 823.617ZM540.635 825.196C539.009 825.196 537.74 824.642 536.685 823.512L533.76 826.241C535.592 828.203 537.93 829.196 540.635 829.196V825.196ZM536.587 823.414C535.457 822.359 534.903 821.089 534.903 819.464H530.903C530.903 822.168 531.895 824.507 533.858 826.338L536.587 823.414ZM579.34 894L577.484 894.744L577.987 896H579.34V894ZM556.299 836.474V834.474H553.343L554.442 837.218L556.299 836.474ZM568.825 836.474L570.68 835.728L570.176 834.474H568.825V836.474ZM586.299 879.928L584.443 880.674L586.291 885.268L588.152 880.68L586.299 879.928ZM603.928 836.474V834.474H602.581L602.075 835.722L603.928 836.474ZM616.454 836.474L618.308 837.222L619.417 834.474H616.454V836.474ZM593.258 894V896H594.608L595.113 894.748L593.258 894ZM581.197 893.256L558.156 835.731L554.442 837.218L577.484 894.744L581.197 893.256ZM556.299 838.474H568.825V834.474H556.299V838.474ZM566.969 837.22L584.443 880.674L588.155 879.182L570.68 835.728L566.969 837.22ZM588.152 880.68L605.781 837.226L602.075 835.722L584.446 879.176L588.152 880.68ZM603.928 838.474H616.454V834.474H603.928V838.474ZM614.599 835.726L591.403 893.252L595.113 894.748L618.308 837.222L614.599 835.726ZM593.258 892H579.34V896H593.258V892ZM641.157 894L639.3 894.744L639.803 896H641.157V894ZM618.115 836.474V834.474H615.16L616.259 837.218L618.115 836.474ZM630.641 836.474L632.497 835.728L631.992 834.474H630.641V836.474ZM648.115 879.928L646.26 880.674L648.107 885.268L649.969 880.68L648.115 879.928ZM665.744 836.474V834.474H664.397L663.891 835.722L665.744 836.474ZM678.27 836.474L680.125 837.222L681.233 834.474H678.27V836.474ZM655.074 894V896H656.424L656.929 894.748L655.074 894ZM643.013 893.256L619.972 835.731L616.259 837.218L639.3 894.744L643.013 893.256ZM618.115 838.474H630.641V834.474H618.115V838.474ZM628.786 837.22L646.26 880.674L649.971 879.182L632.497 835.728L628.786 837.22ZM649.969 880.68L667.598 837.226L663.891 835.722L646.262 879.176L649.969 880.68ZM665.744 838.474H678.27V834.474H665.744V838.474ZM676.415 835.726L653.219 893.252L656.929 894.748L680.125 837.222L676.415 835.726ZM655.074 892H641.157V896H655.074V892Z" fill="#565143" mask="url(#path-13-outside-1_116_9)"/>
</g>
<defs>
<clipPath id="clip0_116_9">
<rect width="1030" height="1030" fill="white"/>
</clipPath>
</defs>
</svg>
